<?xml version="1.0" encoding="UTF-8"?><svg id="b" xmlns="http://www.w3.org/2000/svg" viewBox="0 0 1000.85 500.85"><defs><style>.aw{fill:none;stroke:#75c1c9;stroke-width:.5px;}</style></defs><g id="c"><g><rect id="d" class="aw" x="250.6" y="125.6" width="83.33" height="125"/><rect id="e" class="aw" x="333.94" y="125.6" width="83.33" height="125"/><rect id="f" class="aw" x="417.27" y="125.6" width="83.33" height="125"/><rect id="g" class="aw" x="250.6" y=".6" width="83.33" height="125"/><rect id="h" class="aw" x="333.94" y=".6" width="83.33" height="125"/><rect id="i" class="aw" x="417.27" y=".6" width="83.33" height="125"/><rect id="j" class="aw" x="750.6" y="375.6" width="83.33" height="125"/><rect id="k" class="aw" x="833.94" y="375.6" width="83.33" height="125"/><rect id="l" class="aw" x="917.27" y="375.6" width="83.33" height="125"/><rect id="m" class="aw" x="750.6" y="250.6" width="83.33" height="125"/><rect id="n" class="aw" x="833.94" y="250.6" width="83.33" height="125"/><rect id="o" class="aw" x="917.27" y="250.6" width="83.33" height="125"/><path id="p" class="aw" d="M250.6,.6L125.6,125.6h125V.6Z"/><path id="q" class="aw" d="M250.6,250.6L125.6,125.6h125v125Z"/><path id="r" class="aw" d="M.6,.6L125.6,125.6H.6V.6Z"/><path id="s" class="aw" d="M.6,250.6L125.6,125.6H.6v125Z"/><path id="t" class="aw" d="M250.6,250.6L125.6,125.6v125h125Z"/><path id="u" class="aw" d="M.6,250.6L125.6,125.6v125H.6Z"/><path id="v" class="aw" d="M250.6,.6L125.6,125.6V.6h125Z"/><path id="w" class="aw" d="M.6,.6L125.6,125.6V.6H.6Z"/><rect id="x" class="aw" x=".6" y="250.6" width="250" height="62.5"/><rect id="y" class="aw" x=".6" y="313.1" width="250" height="62.5"/><rect id="z" class="aw" x=".6" y="375.6" width="250" height="62.5"/><rect id="aa" class="aw" x=".6" y="438.1" width="250" height="62.5"/><rect id="ab" class="aw" x="688.1" y=".6" width="62.5" height="250"/><rect id="ac" class="aw" x="625.6" y=".6" width="62.5" height="250"/><rect id="ad" class="aw" x="563.1" y=".6" width="62.5" height="250"/><rect id="ae" class="aw" x="500.6" y=".6" width="62.5" height="250"/><rect id="af" class="aw" x="250.6" y="250.6" width="125" height="125"/><rect id="ag" class="aw" x="250.6" y="375.6" width="125" height="125"/><rect id="ah" class="aw" x="375.6" y="375.6" width="125" height="125"/><rect id="ai" class="aw" x="375.6" y="250.6" width="125" height="125"/><rect id="aj" class="aw" x="750.6" y=".6" width="125" height="125"/><rect id="ak" class="aw" x="750.6" y="125.6" width="125" height="125"/><rect id="al" class="aw" x="875.6" y="125.6" width="125" height="125"/><rect id="am" class="aw" x="875.6" y=".6" width="125" height="125"/><rect id="an" class="aw" x="500.6" y="417.27" width="83.33" height="83.33"/><rect id="ao" class="aw" x="583.94" y="417.27" width="83.33" height="83.33"/><rect id="ap" class="aw" x="667.27" y="417.27" width="83.33" height="83.33"/><rect id="aq" class="aw" x="500.6" y="333.94" width="83.33" height="83.33"/><rect id="ar" class="aw" x="583.94" y="333.94" width="83.33" height="83.33"/><rect id="as" class="aw" x="667.27" y="333.94" width="83.33" height="83.33"/><rect id="at" class="aw" x="500.6" y="250.6" width="83.33" height="83.33"/><rect id="au" class="aw" x="583.94" y="250.6" width="83.33" height="83.33"/><rect id="av" class="aw" x="667.27" y="250.6" width="83.33" height="83.33"/></g></g></svg>