<?xml version="1.0" encoding="UTF-8"?><svg id="b" xmlns="http://www.w3.org/2000/svg" viewBox="0 0 233.29 220.48"><defs><style>.e{fill:#eebd35;}.f{fill:#f66844;}.g{fill:#6bbcc5;}</style></defs><g id="c"><g><circle id="d" class="g" cx="154.89" cy="110.64" r="60.64"/><path class="f" d="M154.89,32.24c-43.3,0-78.4,35.1-78.4,78.4s35.1,78.4,78.4,78.4,78.4-35.1,78.4-78.4-35.1-78.4-78.4-78.4Zm0,139.05c-33.49,0-60.64-27.15-60.64-60.64s27.15-60.64,60.64-60.64,60.64,27.15,60.64,60.64-27.15,60.64-60.64,60.64Z"/><path class="e" d="M76.49,110.64c0-43.3,35.1-78.4,78.4-78.4,1.1,0,2.2,.04,3.29,.08L0,0V220.48l153.99-31.46c-42.89-.48-77.51-35.38-77.51-78.38Z"/></g></g></svg>