<?xml version="1.0" encoding="utf-8"?>
<!-- Generator: Adobe Illustrator 27.0.1, SVG Export Plug-In . SVG Version: 6.00 Build 0)  -->
<svg version="1.1" id="b" xmlns="http://www.w3.org/2000/svg" xmlns:xlink="http://www.w3.org/1999/xlink" x="0px" y="0px"
	 viewBox="0 0 30 30" style="enable-background:new 0 0 30 30;" xml:space="preserve">
<style type="text/css">
	.st0{fill:#FF5555;}
</style>
<path id="c" class="st0" d="M11.4,4.2l-8.1,7l8.1,6.5v-5.1c2.7,0,4.5-0.1,6.6-0.1c1.7,0,3.3,0.3,4.3,1.1c1.1,0.9,1.8,2.1,1.8,4.6
	c0,0.9-0.5,2.1-1.4,3.2c-0.9,1-1.9,1.6-3.2,1.6h-8.6v2.7h8.6c2.1,0,3.8-1.1,5.1-2.5c1.2-1.4,1.9-3.2,1.9-4.8c0-3.2-1.1-5.4-2.8-6.8
	s-3.8-1.8-6-1.8l0,0c-2.3,0-4.1,0.1-6.6,0.1L11.4,4.2L11.4,4.2z"/>
</svg>
