<?xml version="1.0" encoding="utf-8"?>
<!-- Generator: Adobe Illustrator 27.0.1, SVG Export Plug-In . SVG Version: 6.00 Build 0)  -->
<svg version="1.1" id="Layer_2_00000165202212122711149920000004022343293090917516_"
	 xmlns="http://www.w3.org/2000/svg" xmlns:xlink="http://www.w3.org/1999/xlink" x="0px" y="0px" viewBox="0 0 40 40"
	 style="enable-background:new 0 0 40 40;" xml:space="preserve">
<style type="text/css">
	.st0{fill:#FFFFFF;}
</style>
<path class="st0" d="M35.6,21.5h-5.1c-0.7,0-1.2-0.5-1.2-1.2v-0.6c0-0.7,0.5-1.2,1.2-1.2h5.1c0.7,0,1.2,0.5,1.2,1.2v0.6
	C36.8,21,36.3,21.5,35.6,21.5z"/>
<path class="st0" d="M32.7,31.8l-4-2c-0.6-0.3-0.8-1-0.5-1.6l0.3-0.5c0.3-0.6,1-0.8,1.6-0.5l4,2c0.6,0.3,0.8,1,0.5,1.6l-0.3,0.5
	C34,31.9,33.3,32.1,32.7,31.8z"/>
<path class="st0" d="M28.2,12.1L28,11.6c-0.2-0.6,0.1-1.3,0.8-1.5L33,8.6c0.6-0.2,1.3,0.1,1.5,0.8l0.2,0.5c0.2,0.6-0.1,1.3-0.8,1.5
	l-4.2,1.4C29.1,13.1,28.4,12.7,28.2,12.1z"/>
<path class="st0" d="M19.9,6.3c-1.1,0-2.1,0.5-2.9,1.3l-8,6.6c-0.1,0.1-0.3,0.2-0.5,0.2H6.7c-2,0-3.6,1.7-3.6,3.8v3.7
	c0,2.1,1.6,3.8,3.6,3.8h1.8c0.2,0,0.3,0.1,0.5,0.2l8,6.6c0.8,0.8,1.8,1.3,2.9,1.3c4.2,0,6.5-6.9,6.5-13.7
	C26.4,13.2,24.2,6.3,19.9,6.3z M10.9,23.5c-0.7-0.6-1.5-0.9-2.4-0.9H6.7c-0.3,0-0.6-0.4-0.6-0.8v-3.7c0-0.4,0.3-0.8,0.6-0.8h1.8
	c0.9,0,1.7-0.3,2.4-0.9l3.2-2.6c-0.4,1.9-0.6,4-0.6,6.1c0,2.1,0.2,4.2,0.6,6.1L10.9,23.5z M19.9,30.7c-0.2,0-0.4-0.1-0.7-0.3
	c0,0-0.1-0.1-0.1-0.1l0,0c-1.2-1.2-2.6-4.7-2.6-10.2c0-5.6,1.5-9.1,2.7-10.3c0,0,0,0,0,0c0.3-0.3,0.5-0.4,0.7-0.4
	c1.2,0,3.5,3.8,3.5,10.7C23.4,26.9,21.1,30.7,19.9,30.7z"/>
</svg>
