<?xml version="1.0" encoding="utf-8"?>
<!-- Generator: Adobe Illustrator 27.0.1, SVG Export Plug-In . SVG Version: 6.00 Build 0)  -->
<svg version="1.1" id="Layer_2_00000173121522715158672930000015285136814116522918_"
	 xmlns="http://www.w3.org/2000/svg" xmlns:xlink="http://www.w3.org/1999/xlink" x="0px" y="0px" viewBox="0 0 40 40"
	 style="enable-background:new 0 0 40 40;" xml:space="preserve">
<style type="text/css">
	.st0{fill:#F66844;}
	.st1{fill:#FFD15F;}
</style>
<g>
	<path class="st0" d="M22.8,2.6l4.5,9.1l10,1.5c2.6,0.4,3.6,3.6,1.8,5.4l-7.2,7l1.7,10c0.4,2.6-2.3,4.5-4.6,3.3L20,34.1l-8.9,4.7
		c-2.3,1.2-5-0.7-4.6-3.3l1.7-10l-7.2-7c-1.9-1.8-0.8-5,1.8-5.4l10-1.5l4.5-9.1C18.3,0.2,21.7,0.2,22.8,2.6z"/>
	<path class="st1" d="M20.7,6.9l4.1,8.4l9.3,1.3c0.6,0.1,0.9,0.9,0.4,1.3l-6.7,6.5l1.6,9.2c0.1,0.6-0.5,1.1-1.1,0.8L20,30.1
		l-8.3,4.4c-0.6,0.3-1.2-0.2-1.1-0.8l1.6-9.2l-6.7-6.5c-0.5-0.4-0.2-1.2,0.4-1.3l9.3-1.3l4.1-8.4C19.6,6.3,20.4,6.3,20.7,6.9z"/>
</g>
</svg>
