<?xml version="1.0" encoding="UTF-8"?><svg id="a" xmlns="http://www.w3.org/2000/svg" viewBox="0 0 130 35"><path id="b" d="M8.33,7.91l-3.77,21.28,3.32,.05,1.6-7.55c1.43,.03,3.73,.05,5.29,.07l2.58,7.73,5.58-.03-6.57-21.36-8.03-.19Zm3.2,1.64l1.9,8.2-3.15,.14,1.24-8.34Z"/><path id="c" d="M18.24,7.85l7.05,21.2h8.04l3.28-21.36-4.76,.16-2.79,15.29-5.25-15.46-5.58,.16Z"/><path id="d" d="M39.3,7.58l-3.77,21.28,3.32,.05,1.6-7.55c1.43,.03,3.73,.05,5.29,.07l2.58,7.73,5.58-.03-6.57-21.36-8.03-.19Zm3.2,1.64l1.9,8.2-3.15,.14,1.24-8.34Z"/><path id="e" d="M55.28,7.52l.16,21.69,3.73-.11c-.13-3.49-.24-9.09-.24-9.09l13.23,8.89c.16-2.88,.36-16.84,.5-21.22h-5.41l-.33,11.69-11.65-11.85Z"/><path id="f" d="M87.71,7.98l-12.93-.08-.13,21.61,5.58-.41-2.76,3.74,4.02-.15,2.44-3.8,4.62-.4-.34-5.77-8.66,.66,.24-12.82,8.04-.39-.14-2.19Z"/><path id="g" d="M94.06,7.58l-3.77,21.28,3.32,.05,1.6-7.55c1.43,.03,3.73,.05,5.29,.07l2.58,7.73,5.58-.03-6.57-21.36-8.03-.19Zm3.2,1.64l1.9,8.2-3.15,.14,1.24-8.34Z"/><path id="h" d="M123.79,7.27l-12.65,.95c-.19,6.98-.53,13.51-.75,21.04l5.52,.16-.19-7.52,1.85-.23,1.59,7.23,6.27,.13-4.84-7.73,4.16-.51-.96-13.53Zm-2.9,2.65l.18,7.46-5.51,.43-.25-7.57c2.05-.07,3.52-.33,5.58-.33h0Z"/></svg>