<?xml version="1.0" encoding="utf-8"?>
<!-- Generator: Adobe Illustrator 27.0.1, SVG Export Plug-In . SVG Version: 6.00 Build 0)  -->
<svg version="1.1" id="Layer_2_00000173121522715158672930000015285136814116522918_"
	 xmlns="http://www.w3.org/2000/svg" xmlns:xlink="http://www.w3.org/1999/xlink" x="0px" y="0px" viewBox="0 0 40 40"
	 style="enable-background:new 0 0 40 40;" xml:space="preserve">
<style type="text/css">
	.st0{fill:#F66641;}
</style>
<path class="st0" d="M21.3,2.2L21.3,2.2 M20,0c-0.6,0-1.2,0.3-1.5,0.9l-5.3,11.2L1.4,14c-1.3,0.2-1.9,1.9-0.9,2.9l8.6,8.8L7,38
	c-0.2,1.1,0.7,2,1.6,2c0.2,0,0.5-0.1,0.8-0.2L20,34l10.6,5.8c0.2,0.1,0.5,0.2,0.8,0.2c1,0,1.8-0.9,1.6-2l-2-12.4l8.6-8.8
	c1-1,0.4-2.7-0.9-2.9l-11.9-1.8L21.5,0.9C21.2,0.3,20.6,0,20,0L20,0z"/>
</svg>
