<?xml version="1.0" encoding="UTF-8"?><svg id="a" xmlns="http://www.w3.org/2000/svg" viewBox="0 0 88.1 35"><path id="b" d="M54.52,7.84l-.52,21.46,11.36-.13-.39-4.9h-6.07l.13-4.26,4.52-.13,.13-4-5.03-.13v-4.43s6.71-.52,6.71-.52l-.22-2.99-10.62,.02Z"/><path id="c" d="M4.47,7.13l.17,22.18,3.94-.12c-.14-3.69-.25-9.6-.25-9.6l13.98,9.39c.17-3.04,.38-17.06,.53-21.68h-5.71l-.35,11.61L4.47,7.13Z"/><path id="d" d="M32.98,7.99l7.45,21.32h8.49l3.46-21.49-5.03,.17-2.95,15.18-5.54-15.35-5.89,.17Z"/><path id="e" d="M68.54,8.19l-1.04,21.11,15.94-.52,.2-4.33-9.7,.35V8.02s-5.4,.17-5.4,.17Z"/><path id="f" d="M24.62,29.31l.88-21.29,4.82-.18,.88,21.09-6.57,.38Z"/><path id="g" d="M26.13,5.16l4.23,.24,3.44-3.04h-4.86l-2.82,2.8Z"/></svg>