<?xml version="1.0" encoding="UTF-8"?><svg id="b" xmlns="http://www.w3.org/2000/svg" viewBox="0 0 25 32"><defs><style>.d{fill:#fff;}.e{fill:#6c5353;}</style></defs><path id="c" class="d" d="M12.94,1c3.71,0,6.64,3.15,6.64,7.08v4.52h.68c1.56,0,2.73,1.18,2.73,2.75v12.89c0,1.57-1.17,2.75-2.73,2.75H4.74c-1.56,0-2.73-1.18-2.73-2.75V15.36c0-1.57,1.17-2.75,2.73-2.75h.68v-4.52c0-3.93,2.93-7.08,6.64-7.08h.88Zm-.63,2.53c-2.34,0-4.2,2.26-4.2,5.21v3.9h8.98v-3.9c0-2.95-1.95-5.21-4.29-5.21h-.49Z"/><path class="e" d="M15.06,18.16c0-1.37-1.1-2.48-2.46-2.48s-2.46,1.11-2.46,2.48c0,1.21,.86,2.21,2,2.43l-1.89,6.35h4.8l-1.98-6.35c1.13-.22,1.98-1.22,1.98-2.43Z"/></svg>