<?xml version="1.0" encoding="UTF-8"?>
<svg id="Layer_2" data-name="Layer 2" xmlns="http://www.w3.org/2000/svg" viewBox="0 0 40 40">
  <path d="M21.26,2.23h0m-1.26,2.66l4.04,8.58,.68,1.45,1.58,.24,9.32,1.42-6.83,6.97-1.06,1.09,.25,1.5,1.58,9.67-8.11-4.46-1.45-.8-1.45,.8-8.11,4.46,1.58-9.67,.25-1.5-1.06-1.09-6.83-6.97,9.32-1.42,1.58-.24,.68-1.45,4.04-8.58M20,0C19.42,0,18.84,.32,18.54,.95l-5.3,11.24L1.39,13.99c-1.33,.2-1.87,1.92-.9,2.9l8.57,8.75-2.02,12.36c-.18,1.1,.65,1.99,1.6,1.99,.25,0,.51-.06,.76-.2l10.6-5.83,10.6,5.83c.25,.14,.51,.2,.76,.2,.95,0,1.78-.89,1.6-1.99l-2.02-12.36,8.57-8.75c.96-.98,.43-2.7-.9-2.9l-11.85-1.8L21.46,.95C21.16,.32,20.58,0,20,0h0Z"/>
</svg>