<?xml version="1.0" encoding="UTF-8"?><svg id="b" xmlns="http://www.w3.org/2000/svg" viewBox="0 0 35 35"><defs><style>.m{fill:#fff6d5;}.n{fill:#30b9ae;}.o{fill:#1c7aa2;}.p{fill:#3697bd;}</style></defs><g id="c"><g id="d"><path id="e" class="o" d="M16.09,2.5h2.89c.92,0,1.62,.7,1.62,1.62V30.88c0,.92-.7,1.62-1.62,1.62h-2.89c-.92,0-1.62-.7-1.62-1.62V4.12c0-.85,.7-1.62,1.62-1.62Z"/><circle id="f" class="o" cx="17.5" cy="17.64" r="11.62"/><path id="g" class="o" d="M27.08,6.02l2.04,2.04c.63,.63,.63,1.62,0,2.25L10.18,29.26c-.63,.63-1.62,.63-2.25,0l-2.04-2.04c-.63-.63-.63-1.62,0-2.25L24.82,6.02c.63-.63,1.62-.63,2.25,0Z"/><path id="h" class="o" d="M32.5,16.16v2.89c0,.92-.7,1.62-1.62,1.62H4.12c-.92,0-1.62-.7-1.62-1.62v-2.89c0-.92,.7-1.62,1.62-1.62H30.88c.92,0,1.62,.77,1.62,1.62Z"/><path id="i" class="o" d="M29.12,27.22l-2.04,2.04c-.63,.63-1.62,.63-2.25,0L5.88,10.32c-.63-.63-.63-1.62,0-2.25l2.04-2.04c.63-.63,1.62-.63,2.25,0L29.12,24.96c.63,.63,.63,1.62,0,2.25Z"/><circle id="j" class="n" cx="17.5" cy="17.57" r="7.89"/><circle id="k" class="p" cx="17.5" cy="17.57" r="6.69"/><circle id="l" class="m" cx="17.5" cy="17.57" r="5.28"/></g></g></svg>