<?xml version="1.0" encoding="UTF-8"?><svg id="b" xmlns="http://www.w3.org/2000/svg" viewBox="0 0 30 30"><defs><style>.d{fill:#f55;}</style></defs><path id="c" class="d" d="M10.7,2.16L1,10.47l9.7,7.76v-6.01c3.23,0,5.36-.09,7.95-.09,2.03,0,3.88,.46,5.08,1.39,1.29,1.02,2.13,2.5,2.13,5.54,0,1.02-.55,2.59-1.57,3.7-1.02,1.11-2.31,1.85-3.7,1.85H10.33v3.23h10.26c2.49,0,4.62-1.29,6.1-2.96,1.48-1.66,2.31-3.79,2.31-5.82,0-3.7-1.29-6.47-3.42-8.13-2.03-1.66-4.62-2.13-7.12-2.13h0c-2.68,0-4.81,.09-7.95,.09l.18-6.75Z"/></svg>