<?xml version="1.0" encoding="UTF-8"?><svg id="b" xmlns="http://www.w3.org/2000/svg" viewBox="0 0 25 35"><defs><style>.d{fill:#6c4370;}</style></defs><path id="c" class="d" d="M16.35,2.5v30l6.84-5.05V7.82l-6.84-5.32Zm-5.94,4.49c-.48,0-.83,.35-.83,.83v7.81h1.66v-7.05h4.29v-1.66h-5.12v.07Zm-3.46,6.29c-.21,0-.35,.07-.48,.21l-4.35,3.46c-.35,.28-.41,.83-.14,1.18,.07,.07,.07,.14,.14,.14l4.35,3.25c.35,.28,.9,.21,1.18-.14,.14-.14,.14-.35,.14-.48v-2.49h7.74v-1.66H7.78v-2.56c0-.55-.35-.9-.83-.9h0Zm-.76,2.49v3.32l-2.14-1.59,2.14-1.73Zm3.39,3.46v7.81c0,.48,.35,.83,.83,.83h5.12v-1.66h-4.29v-7.05h-1.66v.07Z"/></svg>