<?xml version="1.0" encoding="UTF-8"?><svg id="a" xmlns="http://www.w3.org/2000/svg" viewBox="0 0 105 35"><path id="b" d="M43.35,7.65c-.56,0-14.67-.21-14.67-.21l.06,3.38,4.68,.02-.54,18.1,5.85,.17-.48-18.5,5-.12s.67-2.84,.11-2.84h0Z"/><path id="c" d="M46.04,8.54l-4.09,20,3.6,.06,1.74-7.42c1.55,.02,4.06,.05,5.75,.07l1.99,7.52,6.06-.04-6.33-21.19-8.73,.99Zm3.47,2.43l2.07,6.04-3.42,.15,1.35-6.19Z"/><path id="d" d="M4.05,7.8l.36,20.9,10.69-.08-.35-4.65h-5.88v-5.19l4.45,.35,.18-3.57-5.53-.52-.11-4.96,7.44-.36-.35-1.93H4.05Z"/><path id="e" d="M76.67,8.46l-13.75-.29,.52,20.83,13.29-.17,.65-11.48-6.72,.22v2.94l4.48-.22-.18,2.39-8.19,.25,.14-10.91,9.8-.25-.05-3.3Z"/><path id="f" d="M79.78,8.9l.3,20.1,4.54-.46-.25-20-4.6,.35Z"/><path id="g" d="M17.61,29.11c.47,.11,11.07-.44,11.07-.44l-.22-12.93-6.74-.22,.11-5.25,4.81,.21v-1.92l-8.38-.92-.08,11.43,6.24,.29-.11,4.98-6.48-.18-.24,4.95Z"/><path id="h" d="M79.63,6.59l.08-4.36,4.81,.11-.42,4.26h-4.48Z"/><path id="i" d="M48.06,5.5l4.59-3.05,5.41-.22-5.13,3.27h-4.87Z"/><path d="M86.74,7.97l13.93,.29,.28,20.66-13.93-.53-.28-20.42Zm2.88,15.76h7.29l.75-12.37-8.04,.92v11.46Z"/></svg>