<?xml version="1.0" encoding="utf-8"?>
<!-- Generator: Adobe Illustrator 27.0.1, SVG Export Plug-In . SVG Version: 6.00 Build 0)  -->
<svg version="1.1" id="Layer_1" xmlns="http://www.w3.org/2000/svg" xmlns:xlink="http://www.w3.org/1999/xlink" x="0px" y="0px"
	 viewBox="0 0 40 40" style="enable-background:new 0 0 40 40;" xml:space="preserve">
<style type="text/css">
	.st0{fill:#FFFFFF;}
</style>
<g id="Layer_2_00000022540268906278947390000000866532184354584231_">
</g>
<g id="Layer_3">
	<g>
		<path class="st0" d="M15.3,25v4.9c0,2.6,2.1,4.7,4.8,4.7h8.8c2.6,0,4.8-2.1,4.8-4.7V10.1c0-2.6-2.1-4.7-4.8-4.7h-8.8
			c-2.6,0-4.8,2.1-4.8,4.7V15h3v-4.9c0-1,0.8-1.7,1.8-1.7h8.8c1,0,1.8,0.8,1.8,1.7v19.8c0,1-0.8,1.7-1.8,1.7h-8.8
			c-1,0-1.8-0.8-1.8-1.7V25H15.3z"/>
		<polygon class="st0" points="6.3,20 12.7,23.7 12.7,21.5 24.5,21.5 24.5,18.5 12.7,18.5 12.7,16.3 		"/>
	</g>
</g>
</svg>
