<?xml version="1.0" encoding="UTF-8"?><svg id="b" xmlns="http://www.w3.org/2000/svg" viewBox="0 0 105 40"><defs><style>.d,.e{fill:#f66641;}.e{fill-rule:evenodd;}</style></defs><polygon class="e" points="16.52 17.92 16.52 10.9 9.51 10.9 2.5 10.9 2.5 17.82 2.5 17.92 2.5 24.84 2.5 31.87 2.5 38.89 9.51 38.89 9.51 31.87 16.52 31.87 16.52 24.84 9.51 24.84 9.51 17.92 16.52 17.92"/><path class="d" d="M26.29,24.57c3.83-.02,6.9-3.1,6.92-6.87,0-3.77-3.09-6.85-6.92-6.87h-6.45v28.06h13.48l-7.03-14.32Z"/><polygon class="d" points="49.7 24.66 45.14 10.17 40.6 24.66 40.6 24.66 36.13 38.89 54.17 38.89 49.7 24.66"/><polygon class="e" points="52.42 10.83 52.42 17.85 59.38 17.85 59.38 38.89 66.33 38.89 66.33 17.85 73.28 17.85 73.28 10.83 52.42 10.83"/><path id="c" class="d" d="M87.26,10.9l7.45,13.91-7.45,14.09h15.24l-7.59-14.11,7.59-13.89h-15.24Z"/><g><rect class="d" x="76.65" y="10.97" width="6.95" height="27.93"/><circle class="d" cx="80.13" cy="4.58" r="3.47"/></g></svg>