<?xml version="1.0" encoding="UTF-8"?><svg id="b" xmlns="http://www.w3.org/2000/svg" viewBox="0 0 40 50"><defs><style>.d{fill:#fad06c;}</style></defs><g id="c"><g><rect width="40" height="50" rx="2.8" ry="2.8"/><g><polygon class="d" points="8.49 41.09 8.49 39.31 7.87 39.31 7.87 38.73 2.48 38.73 2.48 39.31 1.86 39.31 1.86 47.18 2.48 47.18 2.48 47.76 7.87 47.76 7.87 47.18 8.49 47.18 8.49 42.96 7.87 42.96 7.87 42.37 5.37 42.37 5.37 44.15 6.71 44.15 6.71 45.98 3.65 45.98 3.65 40.52 6.71 40.52 6.71 41.09 8.49 41.09"/><polygon class="d" points="38.14 41.09 38.14 39.31 37.53 39.31 37.53 38.73 32.1 38.73 32.1 39.31 31.51 39.31 31.51 43.53 32.1 43.53 32.1 44.14 36.35 44.14 36.35 45.98 33.29 45.98 33.29 45.39 31.51 45.39 31.51 47.18 32.1 47.18 32.1 47.76 37.53 47.76 37.53 47.18 38.14 47.18 38.14 42.96 37.53 42.96 37.53 42.35 33.29 42.35 33.29 40.52 36.35 40.52 36.35 41.09 38.14 41.09"/><polygon class="d" points="30.73 40.52 30.73 38.73 24.66 38.73 24.66 39.31 24.1 39.31 24.1 47.18 24.66 47.18 24.66 47.76 30.73 47.76 30.73 45.98 25.88 45.98 25.88 44.15 28.86 44.15 28.86 42.37 25.88 42.37 25.88 40.52 30.73 40.52"/><path class="d" d="M15.3,39.31v-.58h-5.41v.58h-.61v8.46h1.78v-3.61h3.07v3.61h1.78v-8.46h-.61Zm-4.24,3.06v-1.85h3.07v1.85h-3.07Z"/><polygon class="d" points="21.53 38.73 21.53 39.98 20.97 39.98 20.97 41.45 20.32 41.45 20.32 42.7 19.68 42.7 19.68 41.45 19.03 41.45 19.03 39.98 18.47 39.98 18.47 38.73 16.68 38.73 16.68 47.76 18.47 47.76 18.47 42.48 19.03 42.48 19.03 43.95 19.68 43.95 19.68 45.21 20.32 45.21 20.32 43.95 20.97 43.95 20.97 42.48 21.53 42.48 21.53 47.76 23.32 47.76 23.32 38.73 21.53 38.73"/></g><path class="d" d="M31.51,2.22H3.2c-.73,0-1.33,.6-1.33,1.33v31c0,1.55,1.26,2.81,2.8,2.81h1.02c1.55,0,2.8-1.26,2.8-2.81V16.95c0-1.95,1.58-3.53,3.52-3.53h1.15c1.94,0,3.52,1.58,3.52,3.53v17.6c0,1.55,1.26,2.81,2.8,2.81h1.02c1.55,0,2.8-1.26,2.8-2.81V16.95c0-1.95,1.58-3.53,3.52-3.53h1.15c1.94,0,3.52,1.58,3.52,3.53v17.6c0,1.55,1.26,2.81,2.8,2.81h1.02c1.55,0,2.8-1.26,2.8-2.81V3.55c0-.74-.6-1.33-1.33-1.33h-5.3Z"/></g></g></svg>