<?xml version="1.0" encoding="utf-8"?>
<!-- Generator: Adobe Illustrator 27.0.1, SVG Export Plug-In . SVG Version: 6.00 Build 0)  -->
<svg version="1.1" id="a" xmlns="http://www.w3.org/2000/svg" xmlns:xlink="http://www.w3.org/1999/xlink" x="0px" y="0px"
	 viewBox="0 0 500 200" style="enable-background:new 0 0 500 200;" xml:space="preserve">
<style type="text/css">
	
		.st0{fill-rule:evenodd;clip-rule:evenodd;fill:#F66641;stroke:#FFFFFF;stroke-linecap:square;stroke-linejoin:round;stroke-miterlimit:10;}
	.st1{fill:#F66641;stroke:#FFFFFF;stroke-linecap:square;stroke-linejoin:round;stroke-miterlimit:10;}
</style>
<g>
	<g>
		
			<rect id="rect22437_00000041276349142809984450000001132539337389749663_" x="56.9" y="121.9" class="st0" width="31.5" height="31.5">
		</rect>
		
			<rect id="rect22439_00000058558060721506904350000008063680901858786209_" x="56.9" y="58.8" class="st0" width="31.5" height="31.5">
		</rect>
		
			<rect id="rect22441_00000109025506724406463130000014384440062656607925_" x="25.4" y="58.8" class="st0" width="31.5" height="31.5">
		</rect>
		
			<rect id="rect22443_00000023254489537404620540000012742106337513320069_" x="25.4" y="90.3" class="st0" width="31.5" height="31.5">
		</rect>
		
			<rect id="rect22445_00000021814647730427817540000015282817505190204554_" x="25.4" y="121.9" class="st0" width="31.5" height="31.5">
		</rect>
		
			<rect id="rect22447_00000005964365503824073540000004116666739811712415_" x="25.4" y="153.4" class="st0" width="31.5" height="31.5">
		</rect>
	</g>
	<g>
		<path id="path22465_00000150077042576584973260000018017634510130735291_" class="st1" d="M196.5,121.1L216.9,56l20.5,65.1H196.5z
			"/>
		<path id="path22467_00000148627623060292430090000009014265283978577330_" class="st1" d="M237.4,121.1l20.1,63.9h-81l20.1-63.9
			H237.4z"/>
	</g>
	<g>
		
			<rect id="rect22471_00000005243599380995492510000006251073935041575338_" x="280.4" y="59.1" class="st0" width="31.2" height="31.5"/>
		
			<rect id="rect22473_00000152253932329486855120000017894843915696511925_" x="280.4" y="122.1" class="st0" width="31.2" height="31.5"/>
		
			<rect id="rect22475_00000162354718790315379810000004207481592132222390_" x="249.2" y="59.1" class="st0" width="31.2" height="31.5"/>
		
			<rect id="rect22477_00000056424250845764933780000015420522281167386508_" x="311.6" y="59.1" class="st0" width="31.2" height="31.5"/>
		
			<rect id="rect22479_00000015345124200809206680000002240022098705742222_" x="280.4" y="90.6" class="st0" width="31.2" height="31.5"/>
		
			<rect id="rect22481_00000116219354226820423180000017815506720528618916_" x="280.4" y="153.4" class="st0" width="31.2" height="31.5"/>
	</g>
	<g>
		<g>
			<path id="path22485_00000088833920389903311440000006996827726825684385_" class="st1" d="M358.4,59.7l31.1-0.1L374,122.1
				L358.4,59.7z"/>
			<path id="path22487_00000078750298292451967660000008248164814509210506_" class="st1" d="M358.4,184.9l31.1,0.1L374,122.3
				L358.4,184.9z"/>
			<path id="path22493_00000061430093176841614990000012486306384235588020_" class="st1" d="M358.4,59.7l15.6,62.5l-15.6,62.7V59.7
				z"/>
			<path id="path22495_00000161604268828495572980000010668530225566097553_" class="st1" d="M389.5,59.5L374,122.2l15.5,62.8V59.5z
				"/>
		</g>
		<g>
			<path id="path22489_00000148648110382720591320000014738707507056462776_" class="st0" d="M374,30.9v15.8
				c8.6-0.1,15.6-7.1,15.6-15.8H374z"/>
			<path id="path22491_00000093885721445977010880000011961854251942620814_" class="st0" d="M374,30.9V15
				c-8.6,0.1-15.6,7.1-15.6,15.8H374z"/>
			<path id="path22497_00000101100444379848143620000016003480994950115971_" class="st0" d="M374,30.9V15
				c8.6,0.1,15.6,7.1,15.6,15.8H374z"/>
			<path id="path22499_00000038408769385767935700000003454100259692180864_" class="st0" d="M374,30.9v15.8
				c-8.6-0.1-15.6-7.1-15.6-15.8H374z"/>
		</g>
	</g>
	<path id="path22503_00000134963749731128801350000000114204574432412570_" class="st1" d="M405.9,58.8l33.6,62.7l-33.6,63.5h68.7
		l-34.2-63.6l34.2-62.6L405.9,58.8z"/>
	<g>
		<g>
			<path id="path22451_00000164486941739288931130000001272923553927157648_" class="st1" d="M132.2,184.9v-63.9l31.5,63.9H132.2z"
				/>
			
				<rect id="rect22457_00000088096615944704282230000014831791205373039498_" x="103.3" y="59.4" class="st0" width="28.9" height="125.6">
			</rect>
			<path id="path22459_00000047766715418959082110000015099941873879054220_" class="st1" d="M103.3,59.4h28.8l-14.3,63.4
				L103.3,59.4z"/>
			<path id="path22461_00000079456298577245958550000012080760122525139082_" class="st1" d="M103.4,184.9h28.8l-14.4-63.3
				L103.4,184.9z"/>
			<path class="st0" d="M132.2,121.1c17,0,30.8-13.8,30.8-30.8h-30.8V121.1z"/>
		</g>
		<path class="st0" d="M163,90.2c0-17-13.8-30.8-30.8-30.8v30.8H163z"/>
	</g>
</g>
</svg>
