<?xml version="1.0" encoding="UTF-8"?><svg id="a" xmlns="http://www.w3.org/2000/svg" viewBox="0 0 500 200"><defs><style>.ak,.al{stroke-linecap:round;stroke-linejoin:round;}.ak,.al,.am,.an{fill:#f66641;stroke:#ecf0d7;}.ak,.al,.an{stroke-width:.6px;}.al{fill-rule:evenodd;}.am{stroke-width:.57px;}</style></defs><g id="b"><rect id="c" class="ak" x="56.85" y="121.72" width="31.46" height="31.59"/><rect id="d" class="ak" x="56.85" y="58.53" width="31.46" height="31.59"/><rect id="e" class="ak" x="25.39" y="58.53" width="31.46" height="31.59"/><rect id="f" class="ak" x="25.39" y="90.12" width="31.46" height="31.59"/><rect id="g" class="ak" x="25.39" y="121.72" width="31.46" height="31.59"/><rect id="h" class="ak" x="25.39" y="153.31" width="31.46" height="31.59"/></g><g id="i"><path id="j" class="an" d="M132.29,184.89v-63.04l31.51,63.04h-31.51Z"/><path id="k" class="al" d="M132.21,90.88v30.8c17.11-.1,30.92-13.85,30.93-30.78l-30.93-.02Z"/><path id="l" class="al" d="M132.17,89.89v-30.8c17.11,.1,30.93,13.85,30.93,30.78l-30.93,.02Z"/><rect id="m" class="ak" x="103.28" y="59.09" width="28.86" height="125.56"/><path id="n" class="an" d="M103.31,59.07l28.8,.03-14.37,63.37-14.43-63.4Z"/><path id="o" class="an" d="M103.39,184.66h28.77l-14.42-63.33-14.35,63.33Z"/></g><g id="p"><path id="q" class="am" d="M196.45,120.96l20.43-65.08,20.46,65.08h-40.89Z"/><path id="r" class="am" d="M237.34,120.96l20.09,63.91h-81.04l20.06-63.91h40.89Z"/></g><g id="s"><rect id="t" class="ak" x="280.36" y="58.99" width="31.2" height="31.48"/><rect id="u" class="ak" x="280.36" y="121.95" width="31.2" height="31.48"/><rect id="v" class="ak" x="249.16" y="58.99" width="31.2" height="31.48"/><rect id="w" class="ak" x="311.56" y="58.99" width="31.2" height="31.48"/><rect id="x" class="ak" x="280.36" y="90.47" width="31.2" height="31.48"/><rect id="y" class="ak" x="280.36" y="153.43" width="31.2" height="31.48"/></g><g id="z"><path id="aa" class="an" d="M358.34,59.63l31.12-.1-15.53,62.6-15.59-62.5Z"/><path id="ab" class="an" d="M358.34,184.81l31.12,.1-15.53-62.6-15.59,62.5Z"/><path id="ac" class="al" d="M373.95,30.89v15.85c8.63-.05,15.6-7.13,15.61-15.84h-15.61Z"/><path id="ad" class="al" d="M373.95,30.89V15.04c-8.63,.05-15.6,7.13-15.61,15.84h15.61Z"/><path id="ae" class="an" d="M358.34,59.63l15.59,62.5-15.59,62.84V59.63Z"/><path id="af" class="an" d="M389.56,59.63l-15.59,62.5,15.59,62.84V59.63Z"/><path id="ag" class="al" d="M373.95,30.89V15.04c8.63,.05,15.6,7.13,15.61,15.84h-15.61Z"/><path id="ah" class="al" d="M373.95,30.89v15.85c-8.63-.05-15.6-7.13-15.61-15.84h15.61Z"/></g><g id="ai"><path id="aj" class="an" d="M405.86,58.7l33.63,62.65-33.63,63.56h68.75l-34.16-63.61,34.16-62.6h-68.75Z"/></g></svg>